# xmcd
# Track frame offsets:
# 150
# 16891
# 31342
# 50702
# 67859
#
# Disc length: 1200 seconds
# Revision: 0
# Processed by: cddbd v1.5.2PL0 Copyright (c) Steve Scherf et al.
# Submitted via: VisiTrax 2.10.2.252 - For more info visit www.synapsa.com
#
DISCID=3704ae05
DTITLE=Red´n Blue - En himmelsk smak
DYEAR=2008
DGENRE=Blues
TTITLE0=Trädgård full av körsbär
TTITLE1=En himmelsk smak
TTITLE2=Bäst jag slutar
TTITLE3=Long road to recovery
TTITLE4=Graveyard mother
EXTD=
EXTT0=
EXTT1=
EXTT2=
EXTT3=
EXTT4=
PLAYORDER=
